<svg width="32" height="32" viewBox="0 0 32 32" fill="none" xmlns="http://www.w3.org/2000/svg">
<g id="kofi-svgrepo-com 1" clip-path="url(#clip0_3_18)">
<path id="Vector" d="M31.8413 11.9307C30.8107 6.484 25.3627 5.80666 25.3627 5.80666H0.964C0.158667 5.80666 0.0586673 6.87066 0.0586673 6.87066C0.0586673 6.87066 -0.050666 16.636 0.029334 22.6333C0.248001 25.8653 3.47733 26.196 3.47733 26.196C3.47733 26.196 14.5 26.1653 19.432 26.1307C22.6827 25.5627 23.0093 22.7093 22.976 21.152C28.7787 21.472 32.872 17.3773 31.8413 11.9307ZM17.092 16.612C15.4307 18.5493 11.744 21.9133 11.744 21.9133C11.744 21.9133 11.5827 22.072 11.3307 21.944C11.2293 21.868 11.1867 21.824 11.1867 21.824C10.596 21.236 6.696 17.7587 5.808 16.552C4.86267 15.2653 4.42 12.952 5.68667 11.6053C6.95467 10.2587 9.69333 10.1573 11.504 12.148C11.504 12.148 13.5907 9.772 16.128 10.864C18.6667 11.9573 18.5707 14.8787 17.092 16.612ZM25.3227 17.2493C24.0853 17.404 23.08 17.2867 23.08 17.2867V9.712H25.44C25.44 9.712 28.068 10.4467 28.068 13.2293C28.068 15.78 26.7547 16.7853 25.3227 17.2493Z" fill="white"/>
</g>
<defs>
<clipPath id="clip0_3_18">
<rect width="32" height="32" fill="white"/>
</clipPath>
</defs>
</svg>
